<?xml version="1.0" standalone="no"?>
<!DOCTYPE svg PUBLIC "-//W3C//DTD SVG 20010904//EN"
 "http://www.w3.org/TR/2001/REC-SVG-20010904/DTD/svg10.dtd">
<svg version="1.0" xmlns="http://www.w3.org/2000/svg"
 width="700.000000pt" height="700.000000pt" viewBox="0 0 700.000000 700.000000"
 preserveAspectRatio="xMidYMid meet">
<metadata>
Created by potrace 1.14, written by Peter Selinger 2001-2017
</metadata>
<g transform="translate(0.000000,700.000000) scale(0.100000,-0.100000)"
fill="#000000" stroke="none">
<path d="M3496 5858 c-66 -114 -556 -979 -570 -1006 l-17 -32 1223 0 c739 0
1218 4 1212 9 -9 10 -1813 1071 -1820 1071 -2 0 -14 -19 -28 -42z"/>
<path d="M2415 5279 c-495 -291 -905 -533 -912 -537 -9 -5 80 -170 291 -542
167 -294 308 -535 312 -534 5 1 275 471 601 1045 326 574 599 1056 608 1072 9
15 13 27 8 26 -4 0 -413 -239 -908 -530z"/>
<path d="M4310 4690 c0 -8 1205 -2137 1216 -2149 2 -2 4 482 4 1077 l0 1082
-610 0 c-389 0 -610 -4 -610 -10z"/>
<path d="M1470 3442 l0 -1082 611 0 c578 0 611 1 605 18 -7 15 -1204 2132
-1212 2141 -2 2 -4 -482 -4 -1077z"/>
<path d="M3150 4145 l-345 -203 0 -412 0 -412 347 -204 348 -204 347 204 348
204 0 412 0 411 -349 205 c-191 112 -349 204 -350 203 0 0 -156 -92 -346 -204z"/>
<path d="M4884 3388 c-34 -52 -1211 -2134 -1208 -2137 2 -2 415 238 917 534
l915 537 -52 92 c-28 50 -164 289 -301 531 -136 242 -252 444 -256 448 -4 5
-11 3 -15 -5z"/>
<path d="M1526 2232 c12 -12 1903 -1122 1914 -1125 7 -1 565 968 636 1106 l15
27 -1288 0 c-708 0 -1283 -4 -1277 -8z"/>
</g>
</svg>
