<?xml version="1.0" standalone="no"?>
<!DOCTYPE svg PUBLIC "-//W3C//DTD SVG 20010904//EN"
 "http://www.w3.org/TR/2001/REC-SVG-20010904/DTD/svg10.dtd">
<svg version="1.0" xmlns="http://www.w3.org/2000/svg"
 width="700.000000pt" height="700.000000pt" viewBox="0 0 700.000000 700.000000"
 preserveAspectRatio="xMidYMid meet">
<metadata>
Created by potrace 1.14, written by Peter Selinger 2001-2017
</metadata>
<g transform="translate(0.000000,700.000000) scale(0.100000,-0.100000)"
fill="#000000" stroke="none">
<path d="M3280 6994 c-19 -2 -84 -9 -145 -14 -578 -56 -1180 -283 -1660 -625
-237 -169 -531 -446 -709 -670 -416 -521 -673 -1147 -748 -1820 -17 -155 -17
-575 0 -730 52 -469 198 -931 418 -1327 290 -523 731 -983 1239 -1294 439
-269 920 -432 1460 -496 145 -17 576 -17 730 0 822 91 1556 447 2131 1034 203
206 348 390 487 618 274 449 433 916 499 1465 16 136 16 592 0 730 -86 725
-352 1347 -803 1885 -122 145 -351 370 -494 484 -510 407 -1117 661 -1775 742
-117 15 -553 27 -630 18z m1165 -1635 l910 -534 -613 -3 c-336 -1 -886 -1
-1221 0 l-610 3 306 537 c168 296 308 536 312 535 3 -2 415 -244 916 -538z
m-1129 429 c-8 -13 -280 -493 -606 -1068 -326 -575 -595 -1049 -599 -1053 -9
-9 -613 1051 -608 1066 3 10 1803 1074 1820 1076 4 1 1 -9 -7 -21z m2214
-2170 c0 -595 -2 -1079 -3 -1077 -9 10 -1207 2126 -1212 2142 -7 16 26 17 604
17 l611 0 0 -1082z m-3445 -177 c328 -580 599 -1060 602 -1068 4 -11 -99 -13
-606 -13 l-611 0 0 1077 c0 604 4 1073 9 1068 4 -6 277 -484 606 -1064z m1771
698 l344 -202 0 -407 0 -407 -350 -206 -350 -206 -350 206 -350 206 0 407 0
407 343 201 c188 111 348 201 355 201 7 1 168 -90 358 -200z m1358 -1302 c180
-317 285 -512 279 -518 -15 -15 -1808 -1067 -1812 -1064 -3 3 1119 1992 1191
2113 l20 33 17 -28 c10 -15 147 -257 305 -536z m-1138 -624 c-8 -16 -152 -269
-319 -563 -208 -366 -309 -535 -320 -534 -13 1 -1829 1062 -1902 1111 -16 11
197 13 1268 13 l1288 0 -15 -27z"/>
</g>
</svg>
